<svg xmlns="http://www.w3.org/2000/svg" width="800" height="480" viewBox="0 0 800 480" role="img" aria-labelledby="title desc">
<title id="title">Enzyme activity and substrate concentration</title><desc id="desc">Illustrative substrate-rate pairs: (0,0), (1,4), (2,6), (4,8), (8,9), (12,9.5).</desc>
<defs><marker id="arrow" markerWidth="8" markerHeight="8" refX="7" refY="4" orient="auto"><path d="M0,0 L8,4 L0,8 Z" fill="#334155"/></marker></defs>
<style>text{font-family:Arial,Helvetica,sans-serif;fill:#172554}.title{font-size:24px;font-weight:700}.label{font-size:18px}.small{font-size:15px;fill:#475569}.bold{font-size:19px;font-weight:700}.axis{stroke:#334155;stroke-width:2;fill:none}.grid{stroke:#dbe4ee;stroke-width:1}.plot{stroke:#4338ca;stroke-width:4;fill:none;stroke-linejoin:round;stroke-linecap:round}.secondary{stroke:#087f8c;stroke-width:4;fill:none;stroke-dasharray:9 6}.tick{font-size:16px;fill:#475569}</style>
<rect width="800" height="480" rx="16" fill="#ffffff"/>
<text x="40" y="43" class="title" text-anchor="start">Enzyme activity and substrate concentration</text><text x="112" y="80" class="label" text-anchor="start">Initial rate (µmol/min)</text><line x1="115" y1="370" x2="690" y2="370" class="grid" /><text x="92" y="375" class="tick" text-anchor="middle">0</text><line x1="115" y1="320" x2="690" y2="320" class="grid" /><text x="92" y="325" class="tick" text-anchor="middle">2</text><line x1="115" y1="270" x2="690" y2="270" class="grid" /><text x="92" y="275" class="tick" text-anchor="middle">4</text><line x1="115" y1="220" x2="690" y2="220" class="grid" /><text x="92" y="225" class="tick" text-anchor="middle">6</text><line x1="115" y1="170" x2="690" y2="170" class="grid" /><text x="92" y="175" class="tick" text-anchor="middle">8</text><line x1="115" y1="120" x2="690" y2="120" class="grid" /><text x="92" y="125" class="tick" text-anchor="middle">10</text><text x="115" y="400" class="tick" text-anchor="middle">0</text><text x="207" y="400" class="tick" text-anchor="middle">2</text><text x="299" y="400" class="tick" text-anchor="middle">4</text><text x="391" y="400" class="tick" text-anchor="middle">6</text><text x="483" y="400" class="tick" text-anchor="middle">8</text><text x="575" y="400" class="tick" text-anchor="middle">10</text><text x="667" y="400" class="tick" text-anchor="middle">12</text><line x1="115" y1="378" x2="115" y2="98" class="axis" marker-end="url(#arrow)"/><line x1="105" y1="370" x2="720" y2="370" class="axis" marker-end="url(#arrow)"/><polyline points="115,370 161,270 207,220 299,170 483,145 667,132.5" class="plot"/><circle cx="115" cy="370" r="6" fill="#4338ca"/><circle cx="161" cy="270" r="6" fill="#4338ca"/><circle cx="207" cy="220" r="6" fill="#4338ca"/><circle cx="299" cy="170" r="6" fill="#4338ca"/><circle cx="483" cy="145" r="6" fill="#4338ca"/><circle cx="667" cy="132.5" r="6" fill="#4338ca"/><text x="420" y="434" class="label" text-anchor="middle">Substrate concentration (mmol/L)</text><text x="668" y="97" class="small" text-anchor="end">Guide segments join measured means</text>
<text x="760" y="464" class="small" text-anchor="end">PrepSprint · Original educational illustration</text>
</svg>
